<svg width="659" height="437" viewBox="0 0 659 437" fill="none" xmlns="http://www.w3.org/2000/svg">
<circle cx="341.097" cy="62.3156" r="62.3156" fill="url(#paint0_linear_55_5858)"/>
<g clip-path="url(#clip0_55_5858)">
<path d="M351.457 70.8576C349.436 70.8576 347.799 68.4865 347.799 65.5509C347.799 62.6154 349.436 60.233 351.446 60.233L370.651 60.2104C372.672 60.2104 374.309 62.5815 374.309 65.5171C374.309 68.4527 372.684 70.835 370.662 70.835L351.457 70.8576Z" fill="#005151"/>
<path d="M352.01 59.3976C349.989 59.3976 348.352 57.0266 348.352 54.091C348.352 51.1554 349.977 48.7731 351.998 48.7731L371.204 48.7505C373.214 48.7505 374.862 51.1215 374.862 54.0571C374.862 56.9927 373.236 59.375 371.215 59.375L352.01 59.3976Z" fill="#005151"/>
<path d="M351.457 47.926C349.436 47.926 347.799 45.7356 347.799 43.0258C347.799 40.3161 349.436 38.1144 351.446 38.1144L370.651 38.0918C372.672 38.0918 374.309 40.2822 374.309 42.992C374.309 45.7017 372.684 47.9034 370.662 47.9034L351.457 47.926Z" fill="#005151"/>
<path d="M355.329 80.7251C354.008 80.7251 352.936 78.6589 352.936 76.1072C352.936 73.5555 353.997 71.4893 355.318 71.4893H367.862C369.183 71.478 370.256 73.5442 370.256 76.0846C370.256 78.6363 369.194 80.7025 367.873 80.7025H355.329V80.7251Z" fill="#005151"/>
<path d="M365.864 38.1257L343.181 38.0918L342.616 80.669L365.864 80.6803V38.1257Z" fill="#005151"/>
<path d="M348.352 80.6239C348.352 80.6239 336.993 80.9965 334.114 79.6981C330.445 78.0496 330.738 74.4027 330.738 74.4027L315.44 74.3237L314.469 42.5404L329.587 42.4049C329.587 42.4049 329.903 35.0095 336.361 33.3385C339.432 32.5368 350.373 31.3062 350.373 31.3062C350.373 31.3062 359.643 38.3064 359.88 39.1306L346.229 38.4306L348.86 56.9135L348.352 80.6352V80.6239Z" fill="#005151"/>
</g>
<g clip-path="url(#clip1_55_5858)">
<path d="M347.065 66.4655C345.044 66.4655 343.406 64.0944 343.406 61.1589C343.406 58.2233 345.044 55.8409 347.053 55.8409L366.259 55.8184C368.28 55.8184 369.917 58.1894 369.917 61.125C369.917 64.0606 368.291 66.4429 366.27 66.4429L347.065 66.4655Z" fill="#FFD5A3"/>
<path d="M347.618 55.0055C345.597 55.0055 343.959 52.6345 343.959 49.6989C343.959 46.7633 345.585 44.381 347.606 44.381L366.812 44.3584C368.822 44.3584 370.47 46.7294 370.47 49.665C370.47 52.6006 368.844 54.9829 366.823 54.9829L347.618 55.0055Z" fill="#FFD5A3"/>
<path d="M347.065 43.5344C345.044 43.5344 343.406 41.344 343.406 38.6342C343.406 35.9245 345.044 33.7228 347.053 33.7228L366.259 33.7002C368.28 33.7002 369.917 35.8906 369.917 38.6004C369.917 41.3101 368.291 43.5118 366.27 43.5118L347.065 43.5344Z" fill="#FFD5A3"/>
<path d="M350.937 76.3335C349.616 76.3335 348.543 74.2673 348.543 71.7156C348.543 69.1639 349.605 67.0977 350.926 67.0977H363.47C364.791 67.0864 365.863 69.1526 365.863 71.693C365.863 74.2447 364.802 76.3109 363.481 76.3109H350.937V76.3335Z" fill="#FFD5A3"/>
<path d="M361.472 33.7341L338.789 33.7002L338.224 76.2774L361.472 76.2887V33.7341Z" fill="#FFD5A3"/>
<path d="M343.96 76.2323C343.96 76.2323 332.601 76.6049 329.722 75.3065C326.053 73.658 326.346 70.0111 326.346 70.0111L311.047 69.9321L310.076 38.1488L325.195 38.0133C325.195 38.0133 325.511 30.6179 331.969 28.9469C335.04 28.1452 345.981 26.9146 345.981 26.9146C345.981 26.9146 355.25 33.9148 355.488 34.739L341.837 34.039L344.468 52.5218L343.96 76.2436V76.2323Z" fill="#FFD5A3"/>
</g>
<path d="M328.737 99.708L324.56 93.1362H322.659V99.708H321.274V84.3095H326.16C326.683 84.3095 327.173 84.4097 327.631 84.6101C328.089 84.8034 328.49 85.0719 328.834 85.4155C329.177 85.7591 329.446 86.1636 329.639 86.6289C329.84 87.0871 329.94 87.5774 329.94 88.1V89.3457C329.94 89.8683 329.84 90.3622 329.639 90.8275C329.446 91.2857 329.177 91.6866 328.834 92.0302C328.49 92.3738 328.089 92.6459 327.631 92.8463C327.173 93.0396 326.683 93.1362 326.16 93.1362L330.337 99.708H328.737ZM328.555 88.1C328.555 87.7564 328.49 87.4378 328.361 87.1443C328.232 86.8437 328.057 86.5824 327.835 86.3604C327.613 86.1314 327.352 85.9524 327.051 85.8235C326.758 85.6947 326.439 85.6302 326.096 85.6302H322.659V91.8154H326.096C326.439 91.8154 326.758 91.751 327.051 91.6222C327.352 91.4933 327.613 91.3179 327.835 91.096C328.057 90.8669 328.232 90.6056 328.361 90.3121C328.49 90.0114 328.555 89.6893 328.555 89.3457V88.1ZM339.839 96.6906C339.839 97.1344 339.753 97.5532 339.581 97.9469C339.417 98.3407 339.188 98.6843 338.894 98.9778C338.601 99.2713 338.257 99.504 337.863 99.6758C337.47 99.8404 337.051 99.9228 336.607 99.9228H335.726C335.283 99.9228 334.864 99.8404 334.47 99.6758C334.076 99.504 333.733 99.2713 333.439 98.9778C333.146 98.6843 332.913 98.3407 332.741 97.9469C332.577 97.5532 332.494 97.1344 332.494 96.6906V91.7295C332.494 91.2857 332.577 90.8669 332.741 90.4732C332.913 90.0794 333.146 89.7358 333.439 89.4423C333.733 89.1488 334.076 88.9197 334.47 88.7551C334.864 88.5832 335.283 88.4973 335.726 88.4973H336.607C337.051 88.4973 337.47 88.5832 337.863 88.7551C338.257 88.9197 338.601 89.1488 338.894 89.4423C339.188 89.7358 339.417 90.0794 339.581 90.4732C339.753 90.8669 339.839 91.2857 339.839 91.7295V96.6906ZM338.518 91.6544C338.518 91.3895 338.468 91.1425 338.368 90.9134C338.268 90.6772 338.132 90.4732 337.96 90.3014C337.788 90.1295 337.584 89.9935 337.348 89.8933C337.119 89.7931 336.872 89.743 336.607 89.743H335.726C335.462 89.743 335.211 89.7931 334.975 89.8933C334.746 89.9935 334.545 90.1295 334.373 90.3014C334.202 90.4732 334.066 90.6772 333.965 90.9134C333.865 91.1425 333.815 91.3895 333.815 91.6544V96.7657C333.815 97.0306 333.865 97.2812 333.965 97.5174C334.066 97.7465 334.202 97.9469 334.373 98.1188C334.545 98.2906 334.746 98.4266 334.975 98.5268C335.211 98.627 335.462 98.6771 335.726 98.6771H336.607C336.872 98.6771 337.119 98.627 337.348 98.5268C337.584 98.4266 337.788 98.2906 337.96 98.1188C338.132 97.9469 338.268 97.7465 338.368 97.5174C338.468 97.2812 338.518 97.0306 338.518 96.7657V91.6544ZM349.771 96.6906C349.771 97.1344 349.685 97.5532 349.513 97.9469C349.348 98.3407 349.119 98.6843 348.826 98.9778C348.532 99.2713 348.189 99.504 347.795 99.6758C347.401 99.8404 346.982 99.9228 346.538 99.9228H345.658C345.214 99.9228 344.795 99.8404 344.402 99.6758C344.008 99.504 343.664 99.2713 343.371 98.9778C343.077 98.6843 342.845 98.3407 342.673 97.9469C342.508 97.5532 342.426 97.1344 342.426 96.6906V91.7295C342.426 91.2857 342.508 90.8669 342.673 90.4732C342.845 90.0794 343.077 89.7358 343.371 89.4423C343.664 89.1488 344.008 88.9197 344.402 88.7551C344.795 88.5832 345.214 88.4973 345.658 88.4973H346.538C346.982 88.4973 347.401 88.5832 347.795 88.7551C348.189 88.9197 348.532 89.1488 348.826 89.4423C349.119 89.7358 349.348 90.0794 349.513 90.4732C349.685 90.8669 349.771 91.2857 349.771 91.7295V92.1698L348.45 92.3846V91.6544C348.45 91.3895 348.4 91.1425 348.3 90.9134C348.199 90.6772 348.063 90.4732 347.891 90.3014C347.72 90.1295 347.516 89.9935 347.279 89.8933C347.05 89.7931 346.803 89.743 346.538 89.743H345.658C345.393 89.743 345.143 89.7931 344.906 89.8933C344.677 89.9935 344.477 90.1295 344.305 90.3014C344.133 90.4732 343.997 90.6772 343.897 90.9134C343.797 91.1425 343.747 91.3895 343.747 91.6544V96.7657C343.747 97.0306 343.797 97.2812 343.897 97.5174C343.997 97.7465 344.133 97.9469 344.305 98.1188C344.477 98.2906 344.677 98.4266 344.906 98.5268C345.143 98.627 345.393 98.6771 345.658 98.6771H346.538C346.803 98.6771 347.05 98.627 347.279 98.5268C347.516 98.4266 347.72 98.2906 347.891 98.1188C348.063 97.9469 348.199 97.7465 348.3 97.5174C348.4 97.2812 348.45 97.0306 348.45 96.7657V96.0355L349.771 96.2503V96.6906ZM358.65 99.708L354.161 94.2101L358.65 88.7121H360.368L355.772 94.2101L360.368 99.708H358.65ZM352.583 99.708V84.3095H353.904V99.708H352.583Z" fill="white"/>
<circle cx="215.141" cy="374.685" r="62.3156" fill="url(#paint1_linear_55_5858)"/>
<g clip-path="url(#clip2_55_5858)">
<path d="M219.014 342.027C217.573 342.31 216.643 343.71 216.926 345.142C217.209 346.582 218.609 347.512 220.041 347.229L229.927 345.263C231.367 344.98 232.298 343.58 232.015 342.148C231.731 340.708 230.332 339.778 228.9 340.061L219.014 342.027Z" fill="#005151"/>
<path d="M210.34 350.425C209.345 351.493 206.902 355.894 207.97 356.889L208.747 358.418C209.823 359.413 210.438 358.248 211.433 357.18L221.084 346.655C222.079 345.579 222.023 343.904 220.947 342.909C219.871 341.914 218.196 341.971 217.201 343.039L210.34 350.417V350.425Z" fill="#005151"/>
<path d="M220.009 337.553C218.577 337.836 217.638 339.236 217.921 340.668C218.204 342.108 219.604 343.039 221.036 342.755L230.922 340.789C232.362 340.506 233.293 339.107 233.01 337.675C232.726 336.235 231.327 335.304 229.887 335.587L220.009 337.553Z" fill="#005151"/>
<path d="M211.336 345.951C210.341 347.019 207.898 351.42 208.974 352.416L209.75 353.945C210.826 354.94 211.441 353.775 212.436 352.707L222.088 342.181C223.083 341.105 223.026 339.431 221.95 338.436C220.882 337.44 219.2 337.497 218.205 338.565L211.344 345.943L211.336 345.951Z" fill="#005151"/>
<path d="M212.347 338.306C210.907 339.398 210.794 341.671 212.096 343.387C213.399 345.094 215.494 345.247 216.934 344.155L228.269 334.884C229.79 333.46 231.1 331.348 229.879 329.852C228.301 327.91 225.834 329.131 223.585 330.628L212.347 338.314V338.306Z" fill="#005151"/>
<path d="M216.934 344.147C215.858 345.433 210.211 358.111 212.201 360.246C214.798 363.046 216.894 362.714 220.146 360.635C222.047 359.421 223.916 357.779 227.492 355.805C235.388 351.452 235.963 354.235 236.699 355.805C238.026 358.677 228.6 363.021 225.923 366.735C222.314 371.759 217.832 378.417 217.832 378.417L218.043 391.92L201.215 392.138C201.215 392.138 200.22 359.551 200.746 357.997C201.215 356.598 208.472 341.768 212.299 338.338L217.347 343.872C217.153 343.969 217.015 344.058 216.934 344.147Z" fill="#005151"/>
</g>
<g clip-path="url(#clip3_55_5858)">
<path d="M214.621 338.733C213.181 339.016 212.251 340.416 212.534 341.848C212.817 343.288 214.217 344.218 215.649 343.935L225.535 341.969C226.975 341.686 227.905 340.286 227.622 338.854C227.339 337.414 225.939 336.484 224.507 336.767L214.621 338.733Z" fill="#E8BA90"/>
<path d="M205.948 347.131C204.953 348.199 202.51 352.6 203.578 353.595L204.355 355.124C205.431 356.119 206.045 354.954 207.041 353.887L216.692 343.361C217.687 342.285 217.631 340.61 216.555 339.615C215.479 338.62 213.804 338.677 212.809 339.745L205.948 347.123V347.131Z" fill="#E8BA90"/>
<path d="M215.616 334.259C214.184 334.543 213.246 335.942 213.529 337.374C213.812 338.814 215.212 339.745 216.644 339.461L226.53 337.495C227.97 337.212 228.9 335.813 228.617 334.381C228.334 332.941 226.935 332.01 225.494 332.293L215.616 334.259Z" fill="#E8BA90"/>
<path d="M206.943 342.658C205.948 343.725 203.505 348.127 204.581 349.122L205.358 350.651C206.434 351.646 207.048 350.481 208.044 349.413L217.695 338.887C218.69 337.811 218.634 336.137 217.558 335.142C216.49 334.147 214.807 334.203 213.812 335.271L206.951 342.649L206.943 342.658Z" fill="#E8BA90"/>
<path d="M207.955 335.012C206.515 336.104 206.401 338.377 207.704 340.093C209.007 341.8 211.102 341.953 212.542 340.861L223.876 331.59C225.397 330.166 226.708 328.054 225.486 326.558C223.909 324.616 221.441 325.838 219.192 327.334L207.955 335.02V335.012Z" fill="#FFD5A3"/>
<path d="M212.542 340.853C211.466 342.139 205.819 354.817 207.809 356.952C210.406 359.752 212.502 359.42 215.754 357.341C217.655 356.127 219.524 354.485 223.1 352.511C230.996 348.158 231.57 350.941 232.307 352.511C233.633 355.383 224.208 359.727 221.53 363.441C217.922 368.465 213.44 375.123 213.44 375.123L213.65 388.626L196.823 388.844C196.823 388.844 195.827 356.257 196.353 354.703C196.823 353.304 204.08 338.474 207.906 335.044L212.955 340.578C212.76 340.675 212.623 340.764 212.542 340.853Z" fill="#FFD5A3"/>
</g>
<path d="M191.239 412.077V396.679H192.625V410.756H198.52V412.077H191.239ZM200.559 398.44V396.679H202.094V398.44H200.559ZM200.666 412.077V401.081H201.987V412.077H200.666ZM204.584 412.077V411.487L210.125 402.338H204.799V401.081H211.929V401.672L206.388 410.821H211.929V412.077H204.584ZM220.98 412.077L220.25 410.982C219.949 411.376 219.574 411.694 219.123 411.938C218.672 412.174 218.178 412.292 217.641 412.292H217.308C216.864 412.292 216.445 412.21 216.051 412.045C215.658 411.873 215.314 411.64 215.021 411.347C214.727 411.053 214.494 410.71 214.323 410.316C214.158 409.922 214.076 409.504 214.076 409.06V408.952C214.076 408.508 214.158 408.09 214.323 407.696C214.494 407.302 214.727 406.959 215.021 406.665C215.314 406.372 215.658 406.143 216.051 405.978C216.445 405.806 216.864 405.72 217.308 405.72H220.1V404.024C220.1 403.759 220.05 403.512 219.949 403.283C219.849 403.046 219.713 402.842 219.541 402.67C219.369 402.499 219.165 402.363 218.929 402.262C218.7 402.162 218.453 402.112 218.188 402.112H217.415C217.15 402.112 216.9 402.162 216.663 402.262C216.434 402.363 216.234 402.499 216.062 402.67C215.89 402.842 215.754 403.046 215.654 403.283C215.554 403.512 215.504 403.759 215.504 404.024V404.421L214.183 404.206V404.099C214.183 403.655 214.265 403.236 214.43 402.842C214.602 402.449 214.834 402.105 215.128 401.811C215.421 401.518 215.765 401.289 216.159 401.124C216.553 400.952 216.971 400.866 217.415 400.866H218.188C218.632 400.866 219.051 400.952 219.445 401.124C219.838 401.289 220.182 401.518 220.476 401.811C220.769 402.105 220.998 402.449 221.163 402.842C221.335 403.236 221.42 403.655 221.42 404.099V412.077H220.98ZM220.1 406.751H217.308C217.043 406.751 216.792 406.801 216.556 406.901C216.327 407.002 216.127 407.141 215.955 407.32C215.783 407.492 215.647 407.696 215.547 407.932C215.446 408.161 215.396 408.408 215.396 408.673V409.135C215.396 409.4 215.446 409.65 215.547 409.887C215.647 410.116 215.783 410.316 215.955 410.488C216.127 410.66 216.327 410.796 216.556 410.896C216.792 410.996 217.043 411.046 217.308 411.046H218.188C218.453 411.046 218.7 410.996 218.929 410.896C219.165 410.796 219.369 410.66 219.541 410.488C219.713 410.316 219.849 410.116 219.949 409.887C220.05 409.65 220.1 409.4 220.1 409.135V406.751ZM227.239 402.338C226.974 402.338 226.724 402.388 226.488 402.488C226.259 402.588 226.058 402.724 225.886 402.896C225.714 403.068 225.578 403.272 225.478 403.508C225.378 403.737 225.328 403.984 225.328 404.249V412.077H224.007V401.081H224.447L225.167 402.198C225.467 401.79 225.843 401.468 226.294 401.232C226.752 400.988 227.25 400.866 227.787 400.866H228.56V402.338H227.239ZM237.171 412.077L236.441 410.96C236.14 411.368 235.764 411.694 235.313 411.938C234.862 412.174 234.368 412.292 233.831 412.292H233.498C233.055 412.292 232.636 412.21 232.242 412.045C231.848 411.873 231.505 411.64 231.211 411.347C230.918 411.053 230.685 410.71 230.513 410.316C230.348 409.922 230.266 409.504 230.266 409.06V404.099C230.266 403.655 230.348 403.236 230.513 402.842C230.685 402.449 230.918 402.105 231.211 401.811C231.505 401.518 231.848 401.289 232.242 401.124C232.636 400.952 233.055 400.866 233.498 400.866H233.831C234.325 400.866 234.783 400.967 235.206 401.167C235.628 401.368 235.99 401.647 236.29 402.005V396.679H237.611V412.077H237.171ZM236.29 404.024C236.29 403.759 236.24 403.512 236.14 403.283C236.04 403.046 235.904 402.842 235.732 402.67C235.56 402.499 235.356 402.363 235.12 402.262C234.891 402.162 234.644 402.112 234.379 402.112H233.498C233.233 402.112 232.983 402.162 232.747 402.262C232.518 402.363 232.317 402.499 232.145 402.67C231.974 402.842 231.838 403.046 231.737 403.283C231.637 403.512 231.587 403.759 231.587 404.024V409.135C231.587 409.4 231.637 409.65 231.737 409.887C231.838 410.116 231.974 410.316 232.145 410.488C232.317 410.66 232.518 410.796 232.747 410.896C232.983 410.996 233.233 411.046 233.498 411.046H234.379C234.644 411.046 234.891 410.996 235.12 410.896C235.356 410.796 235.56 410.66 235.732 410.488C235.904 410.316 236.04 410.116 236.14 409.887C236.24 409.65 236.29 409.4 236.29 409.135V404.024Z" fill="white"/>
<circle cx="462.014" cy="371.325" r="62.3156" fill="url(#paint2_linear_55_5858)"/>
<g clip-path="url(#clip4_55_5858)">
<path d="M467.826 359.351C465.538 359.584 463.507 358.186 463.316 356.214C463.116 354.25 464.805 352.469 467.102 352.236L488.914 350.014C491.203 349.781 493.225 351.179 493.425 353.143C493.624 355.107 491.935 356.888 489.638 357.121L467.826 359.343V359.351Z" fill="#005151"/>
<path d="M466.112 367.614C463.557 367.523 461.535 365.917 461.601 364.036C461.668 362.147 463.798 360.699 466.362 360.79L490.712 361.664C493.275 361.756 495.289 363.353 495.222 365.242C495.156 367.132 493.025 368.58 490.462 368.488L466.112 367.614Z" fill="#005151"/>
<path d="M462.001 376.236C460.944 376.236 460.078 374.505 460.078 372.366C460.078 370.228 460.936 368.497 461.992 368.497H472.062C473.119 368.48 473.984 370.211 473.984 372.35C473.984 374.489 473.127 376.219 472.07 376.219L462.001 376.236Z" fill="#005151"/>
<path d="M461.11 383.843C460.145 383.843 459.346 382.32 459.346 380.439C459.346 378.558 460.128 377.035 461.102 377.035H470.348C471.321 377.027 472.112 378.55 472.112 380.422C472.112 382.303 471.33 383.834 470.356 383.834H461.11V383.843Z" fill="#005151"/>
<path d="M468.875 352.443L452.156 352.418L451.74 383.801L468.875 383.809V352.443Z" fill="#005151"/>
<path d="M455.968 383.768C455.968 383.768 447.596 384.042 445.474 383.085C442.769 381.87 443.085 379.798 442.736 379.54C442.386 379.274 431.651 379.557 431.651 379.557L430.993 354.616L442.137 354.691C442.137 354.691 443.701 350.796 448.453 349.573C450.725 348.99 458.497 348.549 458.497 348.549C458.497 348.549 468.317 352.777 468.492 353.393L454.403 352.66L456.342 366.283L455.968 383.776V383.768Z" fill="#005151"/>
</g>
<g clip-path="url(#clip5_55_5858)">
<path d="M466.728 354.958C464.439 355.191 462.409 353.793 462.217 351.821C462.018 349.857 463.707 348.076 466.004 347.843L487.816 345.621C490.104 345.388 492.127 346.786 492.326 348.75C492.526 350.714 490.837 352.495 488.54 352.728L466.728 354.95V354.958Z" fill="#FFD5A3"/>
<path d="M465.014 363.222C462.459 363.131 460.437 361.524 460.503 359.644C460.57 357.755 462.7 356.307 465.263 356.398L489.614 357.272C492.177 357.364 494.191 358.961 494.124 360.85C494.057 362.739 491.927 364.188 489.364 364.096L465.014 363.222Z" fill="#FFD5A3"/>
<path d="M460.903 371.844C459.846 371.844 458.98 370.113 458.98 367.974C458.98 365.835 459.838 364.104 460.895 364.104H470.964C472.021 364.087 472.886 365.818 472.886 367.957C472.886 370.096 472.029 371.827 470.972 371.827L460.903 371.844Z" fill="#FFD5A3"/>
<path d="M460.012 379.45C459.047 379.45 458.248 377.927 458.248 376.046C458.248 374.166 459.03 372.643 460.004 372.643H469.25C470.223 372.634 471.014 374.157 471.014 376.03C471.014 377.91 470.232 379.442 469.258 379.442H460.012V379.45Z" fill="#FFD5A3"/>
<path d="M467.777 348.051L451.058 348.026L450.642 379.408L467.777 379.416V348.051Z" fill="#FFD5A3"/>
<path d="M454.869 379.375C454.869 379.375 446.497 379.65 444.375 378.693C441.671 377.478 441.987 375.406 441.637 375.148C441.288 374.881 430.552 375.164 430.552 375.164L429.895 350.223L441.038 350.298C441.038 350.298 442.603 346.404 447.354 345.18C449.626 344.598 457.399 344.157 457.399 344.157C457.399 344.157 467.219 348.384 467.394 349L453.305 348.268L455.244 361.891L454.869 379.384V379.375Z" fill="#FFD5A3"/>
</g>
<path d="M435.16 405.153C435.16 405.675 435.053 406.166 434.838 406.624C434.63 407.082 434.348 407.483 433.99 407.827C433.639 408.17 433.227 408.442 432.755 408.643C432.289 408.836 431.796 408.933 431.273 408.933H430.167C429.644 408.933 429.147 408.836 428.674 408.643C428.209 408.442 427.797 408.17 427.439 407.827C427.089 407.483 426.806 407.082 426.591 406.624C426.383 406.166 426.28 405.675 426.28 405.153V404.541L427.665 404.315V405.153C427.665 405.496 427.733 405.818 427.869 406.119C428.012 406.413 428.202 406.674 428.438 406.903C428.674 407.125 428.946 407.3 429.254 407.429C429.569 407.558 429.898 407.622 430.242 407.622H431.209C431.552 407.622 431.878 407.558 432.186 407.429C432.494 407.3 432.766 407.125 433.002 406.903C433.238 406.674 433.424 406.413 433.56 406.119C433.703 405.818 433.775 405.496 433.775 405.153V404.691C433.775 404.161 433.671 403.721 433.464 403.37C433.256 403.019 432.98 402.722 432.637 402.479C432.293 402.228 431.903 402.017 431.466 401.845C431.037 401.674 430.593 401.502 430.135 401.33C429.677 401.158 429.229 400.968 428.792 400.761C428.363 400.553 427.976 400.295 427.633 399.988C427.289 399.673 427.013 399.29 426.806 398.839C426.598 398.388 426.494 397.833 426.494 397.174V396.884C426.494 396.362 426.591 395.871 426.784 395.413C426.985 394.955 427.257 394.554 427.6 394.21C427.944 393.867 428.345 393.598 428.803 393.405C429.268 393.205 429.762 393.104 430.285 393.104H431.273C431.796 393.104 432.286 393.205 432.744 393.405C433.202 393.598 433.603 393.867 433.947 394.21C434.29 394.554 434.559 394.955 434.752 395.413C434.953 395.871 435.053 396.362 435.053 396.884V397.282L433.668 397.507V396.884C433.668 396.541 433.603 396.222 433.474 395.929C433.345 395.628 433.17 395.367 432.948 395.145C432.726 394.923 432.465 394.747 432.164 394.619C431.871 394.49 431.552 394.425 431.209 394.425H430.349C430.006 394.425 429.684 394.49 429.383 394.619C429.089 394.747 428.828 394.923 428.599 395.145C428.377 395.367 428.202 395.628 428.073 395.929C427.944 396.222 427.88 396.541 427.88 396.884V397.174C427.88 397.668 427.983 398.083 428.191 398.42C428.399 398.756 428.674 399.046 429.018 399.29C429.362 399.526 429.748 399.733 430.178 399.912C430.614 400.084 431.062 400.263 431.52 400.449C431.978 400.628 432.422 400.829 432.851 401.051C433.288 401.265 433.678 401.534 434.022 401.856C434.366 402.171 434.641 402.558 434.849 403.016C435.056 403.474 435.16 404.032 435.16 404.691V405.153ZM444.995 405.7C444.995 406.144 444.909 406.563 444.737 406.957C444.573 407.35 444.344 407.694 444.05 407.988C443.757 408.281 443.413 408.514 443.019 408.686C442.625 408.85 442.207 408.933 441.763 408.933H440.882C440.438 408.933 440.02 408.85 439.626 408.686C439.232 408.514 438.889 408.281 438.595 407.988C438.302 407.694 438.069 407.35 437.897 406.957C437.732 406.563 437.65 406.144 437.65 405.7V400.739C437.65 400.295 437.732 399.877 437.897 399.483C438.069 399.089 438.302 398.746 438.595 398.452C438.889 398.159 439.232 397.929 439.626 397.765C440.02 397.593 440.438 397.507 440.882 397.507H441.763C442.207 397.507 442.625 397.593 443.019 397.765C443.413 397.929 443.757 398.159 444.05 398.452C444.344 398.746 444.573 399.089 444.737 399.483C444.909 399.877 444.995 400.295 444.995 400.739V401.18L443.674 401.394V400.664C443.674 400.399 443.624 400.152 443.524 399.923C443.424 399.687 443.288 399.483 443.116 399.311C442.944 399.139 442.74 399.003 442.504 398.903C442.275 398.803 442.028 398.753 441.763 398.753H440.882C440.617 398.753 440.367 398.803 440.131 398.903C439.902 399.003 439.701 399.139 439.529 399.311C439.357 399.483 439.221 399.687 439.121 399.923C439.021 400.152 438.971 400.399 438.971 400.664V405.776C438.971 406.04 439.021 406.291 439.121 406.527C439.221 406.756 439.357 406.957 439.529 407.129C439.701 407.3 439.902 407.436 440.131 407.537C440.367 407.637 440.617 407.687 440.882 407.687H441.763C442.028 407.687 442.275 407.637 442.504 407.537C442.74 407.436 442.944 407.3 443.116 407.129C443.288 406.957 443.424 406.756 443.524 406.527C443.624 406.291 443.674 406.04 443.674 405.776V405.045L444.995 405.26V405.7ZM447.915 395.08V393.319H449.45V395.08H447.915ZM448.022 408.718V397.722H449.343V408.718H448.022ZM459.94 405.926C459.94 406.37 459.851 406.778 459.672 407.15C459.493 407.515 459.249 407.83 458.941 408.095C458.634 408.36 458.276 408.567 457.868 408.718C457.467 408.861 457.044 408.933 456.6 408.933H455.72C455.276 408.933 454.85 408.85 454.442 408.686C454.041 408.514 453.687 408.281 453.379 407.988C453.078 407.694 452.835 407.35 452.649 406.957C452.47 406.563 452.38 406.144 452.38 405.7V405.26L453.701 405.045V405.776C453.701 406.04 453.755 406.291 453.862 406.527C453.977 406.756 454.127 406.957 454.313 407.129C454.499 407.3 454.714 407.436 454.958 407.537C455.201 407.637 455.455 407.687 455.72 407.687H456.6C456.865 407.687 457.119 407.648 457.363 407.569C457.606 407.49 457.821 407.379 458.007 407.236C458.2 407.086 458.351 406.907 458.458 406.699C458.573 406.491 458.63 406.255 458.63 405.99C458.63 405.597 458.544 405.274 458.372 405.024C458.2 404.773 457.971 404.566 457.685 404.401C457.406 404.229 457.084 404.09 456.719 403.982C456.361 403.868 455.992 403.757 455.613 403.649C455.233 403.535 454.861 403.406 454.496 403.263C454.138 403.12 453.816 402.933 453.529 402.704C453.25 402.468 453.025 402.175 452.853 401.824C452.681 401.473 452.595 401.036 452.595 400.514C452.595 400.07 452.681 399.665 452.853 399.3C453.025 398.928 453.257 398.61 453.551 398.345C453.844 398.08 454.184 397.876 454.571 397.733C454.965 397.582 455.383 397.507 455.827 397.507H456.6C457.044 397.507 457.463 397.593 457.857 397.765C458.251 397.929 458.594 398.159 458.888 398.452C459.181 398.746 459.41 399.089 459.575 399.483C459.747 399.877 459.833 400.295 459.833 400.739V400.782L458.512 400.997V400.664C458.512 400.399 458.462 400.152 458.362 399.923C458.261 399.687 458.125 399.483 457.953 399.311C457.782 399.139 457.578 399.003 457.341 398.903C457.112 398.803 456.865 398.753 456.6 398.753H455.827C455.562 398.753 455.312 398.792 455.076 398.871C454.847 398.95 454.646 399.064 454.474 399.214C454.302 399.358 454.166 399.533 454.066 399.741C453.966 399.948 453.916 400.184 453.916 400.449C453.916 400.829 454.002 401.14 454.174 401.384C454.345 401.62 454.571 401.82 454.85 401.985C455.136 402.15 455.459 402.289 455.817 402.404C456.182 402.511 456.55 402.626 456.923 402.747C457.302 402.862 457.671 402.994 458.029 403.145C458.394 403.295 458.716 403.488 458.995 403.725C459.281 403.961 459.51 404.258 459.682 404.616C459.854 404.967 459.94 405.403 459.94 405.926ZM469.979 405.926C469.979 406.37 469.889 406.778 469.71 407.15C469.532 407.515 469.288 407.83 468.98 408.095C468.672 408.36 468.315 408.567 467.906 408.718C467.506 408.861 467.083 408.933 466.639 408.933H465.759C465.315 408.933 464.889 408.85 464.481 408.686C464.08 408.514 463.726 408.281 463.418 407.988C463.117 407.694 462.874 407.35 462.688 406.957C462.509 406.563 462.419 406.144 462.419 405.7V405.26L463.74 405.045V405.776C463.74 406.04 463.794 406.291 463.901 406.527C464.016 406.756 464.166 406.957 464.352 407.129C464.538 407.3 464.753 407.436 464.996 407.537C465.24 407.637 465.494 407.687 465.759 407.687H466.639C466.904 407.687 467.158 407.648 467.402 407.569C467.645 407.49 467.86 407.379 468.046 407.236C468.239 407.086 468.39 406.907 468.497 406.699C468.612 406.491 468.669 406.255 468.669 405.99C468.669 405.597 468.583 405.274 468.411 405.024C468.239 404.773 468.01 404.566 467.724 404.401C467.445 404.229 467.123 404.09 466.757 403.982C466.4 403.868 466.031 403.757 465.651 403.649C465.272 403.535 464.9 403.406 464.535 403.263C464.177 403.12 463.855 402.933 463.568 402.704C463.289 402.468 463.064 402.175 462.892 401.824C462.72 401.473 462.634 401.036 462.634 400.514C462.634 400.07 462.72 399.665 462.892 399.3C463.064 398.928 463.296 398.61 463.59 398.345C463.883 398.08 464.223 397.876 464.61 397.733C465.004 397.582 465.422 397.507 465.866 397.507H466.639C467.083 397.507 467.502 397.593 467.896 397.765C468.289 397.929 468.633 398.159 468.927 398.452C469.22 398.746 469.449 399.089 469.614 399.483C469.786 399.877 469.872 400.295 469.872 400.739V400.782L468.551 400.997V400.664C468.551 400.399 468.501 400.152 468.4 399.923C468.3 399.687 468.164 399.483 467.992 399.311C467.821 399.139 467.617 399.003 467.38 398.903C467.151 398.803 466.904 398.753 466.639 398.753H465.866C465.601 398.753 465.351 398.792 465.115 398.871C464.885 398.95 464.685 399.064 464.513 399.214C464.341 399.358 464.205 399.533 464.105 399.741C464.005 399.948 463.955 400.184 463.955 400.449C463.955 400.829 464.041 401.14 464.213 401.384C464.384 401.62 464.61 401.82 464.889 401.985C465.175 402.15 465.498 402.289 465.855 402.404C466.221 402.511 466.589 402.626 466.962 402.747C467.341 402.862 467.71 402.994 468.068 403.145C468.433 403.295 468.755 403.488 469.034 403.725C469.32 403.961 469.549 404.258 469.721 404.616C469.893 404.967 469.979 405.403 469.979 405.926ZM479.803 405.7C479.803 406.144 479.717 406.563 479.545 406.957C479.381 407.35 479.152 407.694 478.858 407.988C478.565 408.281 478.221 408.514 477.827 408.686C477.434 408.85 477.015 408.933 476.571 408.933H475.69C475.247 408.933 474.828 408.85 474.434 408.686C474.04 408.514 473.697 408.281 473.403 407.988C473.11 407.694 472.877 407.35 472.705 406.957C472.54 406.563 472.458 406.144 472.458 405.7V400.739C472.458 400.295 472.54 399.877 472.705 399.483C472.877 399.089 473.11 398.746 473.403 398.452C473.697 398.159 474.04 397.929 474.434 397.765C474.828 397.593 475.247 397.507 475.69 397.507H476.571C477.015 397.507 477.434 397.593 477.827 397.765C478.221 397.929 478.565 398.159 478.858 398.452C479.152 398.746 479.381 399.089 479.545 399.483C479.717 399.877 479.803 400.295 479.803 400.739V405.7ZM478.482 400.664C478.482 400.399 478.432 400.152 478.332 399.923C478.232 399.687 478.096 399.483 477.924 399.311C477.752 399.139 477.548 399.003 477.312 398.903C477.083 398.803 476.836 398.753 476.571 398.753H475.69C475.425 398.753 475.175 398.803 474.939 398.903C474.71 399.003 474.509 399.139 474.337 399.311C474.166 399.483 474.03 399.687 473.929 399.923C473.829 400.152 473.779 400.399 473.779 400.664V405.776C473.779 406.04 473.829 406.291 473.929 406.527C474.03 406.756 474.166 406.957 474.337 407.129C474.509 407.3 474.71 407.436 474.939 407.537C475.175 407.637 475.425 407.687 475.69 407.687H476.571C476.836 407.687 477.083 407.637 477.312 407.537C477.548 407.436 477.752 407.3 477.924 407.129C478.096 406.957 478.232 406.756 478.332 406.527C478.432 406.291 478.482 406.04 478.482 405.776V400.664ZM485.622 398.978C485.357 398.978 485.106 399.028 484.87 399.129C484.641 399.229 484.441 399.365 484.269 399.537C484.097 399.708 483.961 399.912 483.861 400.149C483.761 400.378 483.71 400.625 483.71 400.89V408.718H482.39V397.722H482.83L483.549 398.839C483.85 398.431 484.226 398.108 484.677 397.872C485.135 397.629 485.633 397.507 486.17 397.507H486.943V398.978H485.622ZM496.208 405.926C496.208 406.37 496.119 406.778 495.94 407.15C495.761 407.515 495.518 407.83 495.21 408.095C494.902 408.36 494.544 408.567 494.136 408.718C493.735 408.861 493.313 408.933 492.869 408.933H491.988C491.544 408.933 491.119 408.85 490.711 408.686C490.31 408.514 489.955 408.281 489.647 407.988C489.347 407.694 489.103 407.35 488.917 406.957C488.738 406.563 488.649 406.144 488.649 405.7V405.26L489.97 405.045V405.776C489.97 406.04 490.023 406.291 490.131 406.527C490.245 406.756 490.396 406.957 490.582 407.129C490.768 407.3 490.983 407.436 491.226 407.537C491.469 407.637 491.723 407.687 491.988 407.687H492.869C493.134 407.687 493.388 407.648 493.631 407.569C493.875 407.49 494.089 407.379 494.276 407.236C494.469 407.086 494.619 406.907 494.727 406.699C494.841 406.491 494.898 406.255 494.898 405.99C494.898 405.597 494.812 405.274 494.641 405.024C494.469 404.773 494.24 404.566 493.953 404.401C493.674 404.229 493.352 404.09 492.987 403.982C492.629 403.868 492.26 403.757 491.881 403.649C491.502 403.535 491.129 403.406 490.764 403.263C490.406 403.12 490.084 402.933 489.798 402.704C489.519 402.468 489.293 402.175 489.121 401.824C488.949 401.473 488.864 401.036 488.864 400.514C488.864 400.07 488.949 399.665 489.121 399.3C489.293 398.928 489.526 398.61 489.819 398.345C490.113 398.08 490.453 397.876 490.839 397.733C491.233 397.582 491.652 397.507 492.096 397.507H492.869C493.313 397.507 493.732 397.593 494.125 397.765C494.519 397.929 494.863 398.159 495.156 398.452C495.45 398.746 495.679 399.089 495.843 399.483C496.015 399.877 496.101 400.295 496.101 400.739V400.782L494.78 400.997V400.664C494.78 400.399 494.73 400.152 494.63 399.923C494.53 399.687 494.394 399.483 494.222 399.311C494.05 399.139 493.846 399.003 493.61 398.903C493.381 398.803 493.134 398.753 492.869 398.753H492.096C491.831 398.753 491.58 398.792 491.344 398.871C491.115 398.95 490.915 399.064 490.743 399.214C490.571 399.358 490.435 399.533 490.335 399.741C490.234 399.948 490.184 400.184 490.184 400.449C490.184 400.829 490.27 401.14 490.442 401.384C490.614 401.62 490.839 401.82 491.119 401.985C491.405 402.15 491.727 402.289 492.085 402.404C492.45 402.511 492.819 402.626 493.191 402.747C493.57 402.862 493.939 402.994 494.297 403.145C494.662 403.295 494.984 403.488 495.263 403.725C495.55 403.961 495.779 404.258 495.951 404.616C496.123 404.967 496.208 405.403 496.208 405.926Z" fill="white"/>
<circle cx="596.366" cy="163.919" r="62.3156" fill="url(#paint3_linear_55_5858)"/>
<g clip-path="url(#clip6_55_5858)">
<path d="M593.007 150.974C593.007 153.374 591.429 155.33 589.481 155.33C587.525 155.33 585.947 153.383 585.947 150.983L585.922 128.118C585.922 125.718 587.492 123.77 589.448 123.762C591.396 123.762 592.982 125.702 592.982 128.11L593.007 150.974Z" fill="#005151"/>
<path d="M601.415 149.462C601.415 151.994 599.911 154.048 598.045 154.048C596.179 154.048 594.667 152.002 594.667 149.47L594.642 125.406C594.634 122.875 596.138 120.82 598.004 120.82C599.869 120.82 601.382 122.866 601.382 125.398L601.406 149.462H601.415Z" fill="#005151"/>
<path d="M609.642 150.999C609.642 153.399 608.179 155.339 606.371 155.339C604.562 155.339 603.091 153.399 603.091 151.008L603.067 128.217C603.067 125.825 604.521 123.877 606.329 123.877C608.138 123.877 609.609 125.817 609.609 128.209L609.633 150.999H609.642Z" fill="#005151"/>
<path d="M617.646 153.235C617.646 155.314 616.257 156.999 614.54 157.007C612.822 157.007 611.425 155.322 611.425 153.251L611.4 133.461C611.4 131.381 612.789 129.688 614.507 129.696C616.225 129.696 617.622 131.373 617.622 133.452L617.646 153.243V153.235Z" fill="#005151"/>
<path d="M586.875 160.434C587.221 161.774 585.955 163.582 583.851 164.133L582.528 162.226C580.424 162.777 579.257 166.237 579.257 166.237C579.257 166.237 575.591 151.287 574.745 148.082C574.358 146.619 575.813 145.213 577.917 144.663C580.021 144.112 581.213 145.222 581.78 146.775C583.218 150.703 586.875 160.434 586.875 160.434Z" fill="#005151"/>
<path d="M585.939 147.604L585.914 164.108L617.647 164.519L617.655 147.604H585.939Z" fill="#005151"/>
<path d="M617.655 160.36C617.655 160.36 617.877 168.177 616.932 170.272C615.732 172.943 612.954 173.075 612.699 173.42C612.436 173.765 612.707 184.359 612.707 184.359L588.076 185.009L588.15 173.995C588.15 173.995 581.082 174.678 579.865 169.976C578.69 165.431 578.032 161.717 576.972 156.999L586.144 161.889L599.598 159.974L617.647 160.36H617.655Z" fill="#005151"/>
</g>
<g clip-path="url(#clip7_55_5858)">
<path d="M589.712 148.229C589.712 150.629 588.134 152.585 586.187 152.585C584.231 152.585 582.653 150.637 582.653 148.237L582.628 125.373C582.628 122.973 584.198 121.025 586.154 121.017C588.102 121.017 589.688 122.956 589.688 125.364L589.712 148.229Z" fill="#FFD5A3"/>
<path d="M598.12 146.717C598.12 149.248 596.616 151.303 594.751 151.303C592.885 151.303 591.373 149.256 591.373 146.725L591.348 122.66C591.34 120.129 592.844 118.074 594.71 118.074C596.575 118.074 598.088 120.121 598.088 122.652L598.112 146.717H598.12Z" fill="#FFD5A3"/>
<path d="M606.347 148.254C606.347 150.654 604.884 152.593 603.076 152.593C601.268 152.593 599.797 150.654 599.797 148.262L599.772 125.471C599.772 123.08 601.227 121.132 603.035 121.132C604.843 121.132 606.314 123.071 606.314 125.463L606.339 148.254H606.347Z" fill="#FFD5A3"/>
<path d="M614.352 150.489C614.352 152.569 612.963 154.253 611.246 154.262C609.528 154.262 608.131 152.577 608.131 150.506L608.106 130.715C608.106 128.636 609.495 126.942 611.213 126.951C612.93 126.951 614.328 128.627 614.328 130.707L614.352 150.497V150.489Z" fill="#FFD5A3"/>
<path d="M583.581 157.689C583.926 159.028 582.661 160.837 580.557 161.387L579.234 159.48C577.13 160.031 575.963 163.491 575.963 163.491C575.963 163.491 572.297 148.541 571.45 145.336C571.064 143.873 572.519 142.468 574.623 141.917C576.727 141.366 577.919 142.476 578.486 144.029C579.924 147.958 583.581 157.689 583.581 157.689Z" fill="#FFD5A3"/>
<path d="M582.644 144.859L582.62 161.363L614.352 161.774L614.36 144.859H582.644Z" fill="#FFD5A3"/>
<path d="M614.361 157.615C614.361 157.615 614.582 165.431 613.637 167.527C612.437 170.198 609.659 170.329 609.405 170.674C609.142 171.02 609.413 181.614 609.413 181.614L584.781 182.263L584.855 171.25C584.855 171.25 577.787 171.932 576.571 167.231C575.395 162.686 574.738 158.971 573.678 154.253L582.85 159.144L596.304 157.229L614.352 157.615H614.361Z" fill="#FFD5A3"/>
</g>
<path d="M582.283 191.615C582.283 192.138 582.183 192.628 581.983 193.086C581.789 193.544 581.521 193.945 581.177 194.289C580.834 194.632 580.429 194.904 579.964 195.105C579.506 195.298 579.015 195.395 578.493 195.395H575.003V201.312H573.618V185.913H578.493C579.015 185.913 579.506 186.013 579.964 186.214C580.429 186.407 580.834 186.675 581.177 187.019C581.521 187.363 581.789 187.767 581.983 188.232C582.183 188.691 582.283 189.181 582.283 189.704V191.615ZM580.898 189.704C580.898 189.36 580.834 189.041 580.705 188.748C580.576 188.447 580.397 188.186 580.168 187.964C579.946 187.735 579.685 187.556 579.384 187.427C579.091 187.298 578.772 187.234 578.428 187.234H575.003V194.074H578.428C578.772 194.074 579.091 194.01 579.384 193.881C579.685 193.752 579.946 193.576 580.168 193.355C580.397 193.133 580.576 192.875 580.705 192.581C580.834 192.281 580.898 191.959 580.898 191.615V189.704ZM591.345 201.312L590.615 200.216C590.314 200.61 589.938 200.929 589.487 201.172C589.036 201.408 588.542 201.526 588.006 201.526H587.673C587.229 201.526 586.81 201.444 586.416 201.279C586.023 201.107 585.679 200.875 585.385 200.581C585.092 200.288 584.859 199.944 584.687 199.55C584.523 199.157 584.44 198.738 584.44 198.294V198.187C584.44 197.743 584.523 197.324 584.687 196.93C584.859 196.537 585.092 196.193 585.385 195.899C585.679 195.606 586.023 195.377 586.416 195.212C586.81 195.04 587.229 194.955 587.673 194.955H590.465V193.258C590.465 192.993 590.414 192.746 590.314 192.517C590.214 192.281 590.078 192.077 589.906 191.905C589.734 191.733 589.53 191.597 589.294 191.497C589.065 191.397 588.818 191.346 588.553 191.346H587.78C587.515 191.346 587.265 191.397 587.028 191.497C586.799 191.597 586.599 191.733 586.427 191.905C586.255 192.077 586.119 192.281 586.019 192.517C585.919 192.746 585.869 192.993 585.869 193.258V193.655L584.548 193.44V193.333C584.548 192.889 584.63 192.47 584.795 192.077C584.967 191.683 585.199 191.339 585.493 191.046C585.786 190.752 586.13 190.523 586.524 190.359C586.917 190.187 587.336 190.101 587.78 190.101H588.553C588.997 190.101 589.416 190.187 589.81 190.359C590.203 190.523 590.547 190.752 590.84 191.046C591.134 191.339 591.363 191.683 591.528 192.077C591.699 192.47 591.785 192.889 591.785 193.333V201.312H591.345ZM590.465 195.985H587.673C587.408 195.985 587.157 196.035 586.921 196.136C586.692 196.236 586.491 196.376 586.32 196.555C586.148 196.726 586.012 196.93 585.912 197.167C585.811 197.396 585.761 197.643 585.761 197.908V198.369C585.761 198.634 585.811 198.885 585.912 199.121C586.012 199.35 586.148 199.55 586.32 199.722C586.491 199.894 586.692 200.03 586.921 200.13C587.157 200.231 587.408 200.281 587.673 200.281H588.553C588.818 200.281 589.065 200.231 589.294 200.13C589.53 200.03 589.734 199.894 589.906 199.722C590.078 199.55 590.214 199.35 590.314 199.121C590.414 198.885 590.465 198.634 590.465 198.369V195.985ZM601.717 198.294C601.717 198.738 601.631 199.157 601.459 199.55C601.295 199.944 601.065 200.288 600.772 200.581C600.478 200.875 600.135 201.107 599.741 201.279C599.347 201.444 598.929 201.526 598.485 201.526H598.152C597.658 201.526 597.2 201.426 596.777 201.226C596.355 201.025 595.993 200.746 595.693 200.388V205.714H594.372V190.316H594.812L595.532 191.432C595.832 191.024 596.208 190.702 596.659 190.466C597.117 190.223 597.615 190.101 598.152 190.101H598.485C598.929 190.101 599.347 190.187 599.741 190.359C600.135 190.523 600.478 190.752 600.772 191.046C601.065 191.339 601.295 191.683 601.459 192.077C601.631 192.47 601.717 192.889 601.717 193.333V198.294ZM600.396 193.258C600.396 192.993 600.346 192.746 600.246 192.517C600.146 192.281 600.01 192.077 599.838 191.905C599.666 191.733 599.462 191.597 599.226 191.497C598.997 191.397 598.75 191.346 598.485 191.346H597.604C597.339 191.346 597.089 191.397 596.852 191.497C596.623 191.597 596.423 191.733 596.251 191.905C596.079 192.077 595.943 192.281 595.843 192.517C595.743 192.746 595.693 192.993 595.693 193.258V198.369C595.693 198.634 595.743 198.885 595.843 199.121C595.943 199.35 596.079 199.55 596.251 199.722C596.423 199.894 596.623 200.03 596.852 200.13C597.089 200.231 597.339 200.281 597.604 200.281H598.485C598.75 200.281 598.997 200.231 599.226 200.13C599.462 200.03 599.666 199.894 599.838 199.722C600.01 199.55 600.146 199.35 600.246 199.121C600.346 198.885 600.396 198.634 600.396 198.369V193.258ZM611.648 198.294C611.648 198.738 611.563 199.157 611.391 199.55C611.226 199.944 610.997 200.288 610.703 200.581C610.41 200.875 610.066 201.107 609.673 201.279C609.279 201.444 608.86 201.526 608.416 201.526H607.536C607.092 201.526 606.673 201.444 606.279 201.279C605.886 201.107 605.542 200.875 605.248 200.581C604.955 200.288 604.722 199.944 604.55 199.55C604.386 199.157 604.303 198.738 604.303 198.294V193.333C604.303 192.889 604.386 192.47 604.55 192.077C604.722 191.683 604.955 191.339 605.248 191.046C605.542 190.752 605.886 190.523 606.279 190.359C606.673 190.187 607.092 190.101 607.536 190.101H608.416C608.86 190.101 609.279 190.187 609.673 190.359C610.066 190.523 610.41 190.752 610.703 191.046C610.997 191.339 611.226 191.683 611.391 192.077C611.563 192.47 611.648 192.889 611.648 193.333V195.921H605.624V198.369C605.624 198.634 605.674 198.885 605.775 199.121C605.875 199.35 606.011 199.55 606.183 199.722C606.354 199.894 606.555 200.03 606.784 200.13C607.02 200.231 607.271 200.281 607.536 200.281H608.416C608.681 200.281 608.928 200.231 609.157 200.13C609.393 200.03 609.597 199.894 609.769 199.722C609.941 199.55 610.077 199.35 610.177 199.121C610.278 198.885 610.328 198.634 610.328 198.369V197.639L611.648 197.854V198.294ZM610.328 193.258C610.328 192.993 610.278 192.746 610.177 192.517C610.077 192.281 609.941 192.077 609.769 191.905C609.597 191.733 609.393 191.597 609.157 191.497C608.928 191.397 608.681 191.346 608.416 191.346H607.536C607.271 191.346 607.02 191.397 606.784 191.497C606.555 191.597 606.354 191.733 606.183 191.905C606.011 192.077 605.875 192.281 605.775 192.517C605.674 192.746 605.624 192.993 605.624 193.258V194.89H610.328V193.258ZM617.467 191.572C617.202 191.572 616.952 191.622 616.716 191.722C616.486 191.823 616.286 191.959 616.114 192.13C615.942 192.302 615.806 192.506 615.706 192.742C615.606 192.972 615.556 193.219 615.556 193.483V201.312H614.235V190.316H614.675L615.395 191.432C615.695 191.024 616.071 190.702 616.522 190.466C616.98 190.223 617.478 190.101 618.015 190.101H618.788V191.572H617.467Z" fill="white"/>
<circle cx="62.3156" cy="172.317" r="62.3156" fill="url(#paint4_linear_55_5858)"/>
<path d="M46.225 206.144C46.225 206.666 46.1176 207.157 45.9029 207.615C45.6953 208.073 45.4125 208.474 45.0545 208.818C44.7038 209.161 44.2921 209.433 43.8197 209.634C43.3543 209.827 42.8604 209.924 42.3378 209.924H41.2318C40.7092 209.924 40.2116 209.827 39.7391 209.634C39.2738 209.433 38.8622 209.161 38.5043 208.818C38.1535 208.474 37.8707 208.073 37.6559 207.615C37.4483 207.157 37.3445 206.666 37.3445 206.144V205.532L38.7298 205.306V206.144C38.7298 206.488 38.7978 206.81 38.9338 207.11C39.077 207.404 39.2667 207.665 39.5029 207.894C39.7391 208.116 40.0112 208.292 40.319 208.42C40.634 208.549 40.9633 208.614 41.3069 208.614H42.2734C42.617 208.614 42.9427 208.549 43.2505 208.42C43.5584 208.292 43.8304 208.116 44.0666 207.894C44.3029 207.665 44.489 207.404 44.625 207.11C44.7682 206.81 44.8398 206.488 44.8398 206.144V205.682C44.8398 205.152 44.736 204.712 44.5284 204.361C44.3208 204.011 44.0452 203.713 43.7015 203.47C43.3579 203.22 42.9678 203.008 42.5311 202.837C42.1015 202.665 41.6577 202.493 41.1995 202.321C40.7414 202.149 40.294 201.96 39.8573 201.752C39.4277 201.544 39.0412 201.287 38.6975 200.979C38.3539 200.664 38.0783 200.281 37.8707 199.83C37.6631 199.379 37.5593 198.824 37.5593 198.165V197.876C37.5593 197.353 37.6559 196.863 37.8492 196.404C38.0497 195.946 38.3217 195.545 38.6653 195.202C39.0089 194.858 39.4098 194.59 39.868 194.396C40.3333 194.196 40.8273 194.096 41.3499 194.096H42.3378C42.8604 194.096 43.3508 194.196 43.8089 194.396C44.2671 194.59 44.668 194.858 45.0116 195.202C45.3552 195.545 45.6237 195.946 45.817 196.404C46.0174 196.863 46.1176 197.353 46.1176 197.876V198.273L44.7324 198.498V197.876C44.7324 197.532 44.668 197.213 44.5391 196.92C44.4103 196.619 44.2349 196.358 44.0129 196.136C43.791 195.914 43.5297 195.739 43.2291 195.61C42.9355 195.481 42.617 195.416 42.2734 195.416H41.4143C41.0707 195.416 40.7485 195.481 40.4479 195.61C40.1544 195.739 39.8931 195.914 39.664 196.136C39.4421 196.358 39.2667 196.619 39.1378 196.92C39.0089 197.213 38.9445 197.532 38.9445 197.876V198.165C38.9445 198.659 39.0483 199.075 39.2559 199.411C39.4635 199.748 39.7391 200.037 40.0828 200.281C40.4264 200.517 40.813 200.725 41.2425 200.904C41.6792 201.075 42.1266 201.254 42.5848 201.441C43.0429 201.62 43.4868 201.82 43.9163 202.042C44.353 202.257 44.7431 202.525 45.0868 202.847C45.4304 203.162 45.706 203.549 45.9136 204.007C46.1212 204.465 46.225 205.024 46.225 205.682V206.144ZM56.0599 206.692C56.0599 207.135 55.974 207.554 55.8022 207.948C55.6375 208.342 55.4084 208.685 55.1149 208.979C54.8214 209.272 54.4778 209.505 54.0841 209.677C53.6903 209.841 53.2715 209.924 52.8277 209.924H52.4948C52.0009 209.924 51.5427 209.824 51.1203 209.623C50.698 209.423 50.3364 209.143 50.0358 208.786V214.112H48.715V198.713H49.1552L49.8747 199.83C50.1754 199.422 50.5512 199.1 51.0022 198.863C51.4604 198.62 51.9579 198.498 52.4948 198.498H52.8277C53.2715 198.498 53.6903 198.584 54.0841 198.756C54.4778 198.921 54.8214 199.15 55.1149 199.443C55.4084 199.737 55.6375 200.08 55.8022 200.474C55.974 200.868 56.0599 201.287 56.0599 201.731V206.692ZM54.7391 201.655C54.7391 201.39 54.689 201.143 54.5888 200.914C54.4885 200.678 54.3525 200.474 54.1807 200.302C54.0089 200.131 53.8049 199.995 53.5686 199.894C53.3396 199.794 53.0926 199.744 52.8277 199.744H51.9472C51.6823 199.744 51.4317 199.794 51.1955 199.894C50.9664 199.995 50.766 200.131 50.5942 200.302C50.4224 200.474 50.2863 200.678 50.1861 200.914C50.0859 201.143 50.0358 201.39 50.0358 201.655V206.767C50.0358 207.032 50.0859 207.282 50.1861 207.518C50.2863 207.747 50.4224 207.948 50.5942 208.12C50.766 208.292 50.9664 208.428 51.1955 208.528C51.4317 208.628 51.6823 208.678 51.9472 208.678H52.8277C53.0926 208.678 53.3396 208.628 53.5686 208.528C53.8049 208.428 54.0089 208.292 54.1807 208.12C54.3525 207.948 54.4885 207.747 54.5888 207.518C54.689 207.282 54.7391 207.032 54.7391 206.767V201.655ZM65.9914 206.692C65.9914 207.135 65.9055 207.554 65.7337 207.948C65.5691 208.342 65.34 208.685 65.0465 208.979C64.753 209.272 64.4093 209.505 64.0156 209.677C63.6219 209.841 63.2031 209.924 62.7592 209.924H61.8787C61.4349 209.924 61.0161 209.841 60.6223 209.677C60.2286 209.505 59.885 209.272 59.5915 208.979C59.298 208.685 59.0653 208.342 58.8935 207.948C58.7288 207.554 58.6465 207.135 58.6465 206.692V201.731C58.6465 201.287 58.7288 200.868 58.8935 200.474C59.0653 200.08 59.298 199.737 59.5915 199.443C59.885 199.15 60.2286 198.921 60.6223 198.756C61.0161 198.584 61.4349 198.498 61.8787 198.498H62.7592C63.2031 198.498 63.6219 198.584 64.0156 198.756C64.4093 198.921 64.753 199.15 65.0465 199.443C65.34 199.737 65.5691 200.08 65.7337 200.474C65.9055 200.868 65.9914 201.287 65.9914 201.731V206.692ZM64.6706 201.655C64.6706 201.39 64.6205 201.143 64.5203 200.914C64.4201 200.678 64.2841 200.474 64.1122 200.302C63.9404 200.131 63.7364 199.995 63.5002 199.894C63.2711 199.794 63.0241 199.744 62.7592 199.744H61.8787C61.6138 199.744 61.3633 199.794 61.127 199.894C60.898 199.995 60.6975 200.131 60.5257 200.302C60.3539 200.474 60.2179 200.678 60.1176 200.914C60.0174 201.143 59.9673 201.39 59.9673 201.655V206.767C59.9673 207.032 60.0174 207.282 60.1176 207.518C60.2179 207.747 60.3539 207.948 60.5257 208.12C60.6975 208.292 60.898 208.428 61.127 208.528C61.3633 208.628 61.6138 208.678 61.8787 208.678H62.7592C63.0241 208.678 63.2711 208.628 63.5002 208.528C63.7364 208.428 63.9404 208.292 64.1122 208.12C64.2841 207.948 64.4201 207.747 64.5203 207.518C64.6205 207.282 64.6706 207.032 64.6706 206.767V201.655ZM75.923 206.692C75.923 207.135 75.8371 207.554 75.6652 207.948C75.5006 208.342 75.2715 208.685 74.978 208.979C74.6845 209.272 74.3409 209.505 73.9471 209.677C73.5534 209.841 73.1346 209.924 72.6908 209.924H71.8102C71.3664 209.924 70.9476 209.841 70.5539 209.677C70.1601 209.505 69.8165 209.272 69.523 208.979C69.2295 208.685 68.9968 208.342 68.825 207.948C68.6604 207.554 68.578 207.135 68.578 206.692V201.731C68.578 201.287 68.6604 200.868 68.825 200.474C68.9968 200.08 69.2295 199.737 69.523 199.443C69.8165 199.15 70.1601 198.921 70.5539 198.756C70.9476 198.584 71.3664 198.498 71.8102 198.498H72.6908C73.1346 198.498 73.5534 198.584 73.9471 198.756C74.3409 198.921 74.6845 199.15 74.978 199.443C75.2715 199.737 75.5006 200.08 75.6652 200.474C75.8371 200.868 75.923 201.287 75.923 201.731V202.171L74.6022 202.386V201.655C74.6022 201.39 74.5521 201.143 74.4518 200.914C74.3516 200.678 74.2156 200.474 74.0438 200.302C73.872 200.131 73.6679 199.995 73.4317 199.894C73.2026 199.794 72.9556 199.744 72.6908 199.744H71.8102C71.5454 199.744 71.2948 199.794 71.0586 199.894C70.8295 199.995 70.629 200.131 70.4572 200.302C70.2854 200.474 70.1494 200.678 70.0492 200.914C69.949 201.143 69.8988 201.39 69.8988 201.655V206.767C69.8988 207.032 69.949 207.282 70.0492 207.518C70.1494 207.747 70.2854 207.948 70.4572 208.12C70.629 208.292 70.8295 208.428 71.0586 208.528C71.2948 208.628 71.5454 208.678 71.8102 208.678H72.6908C72.9556 208.678 73.2026 208.628 73.4317 208.528C73.6679 208.428 73.872 208.292 74.0438 208.12C74.2156 207.948 74.3516 207.747 74.4518 207.518C74.5521 207.282 74.6022 207.032 74.6022 206.767V206.037L75.923 206.251V206.692ZM84.8022 209.709L80.3136 204.211L84.8022 198.713H86.5203L81.9243 204.211L86.5203 209.709H84.8022ZM78.7351 209.709V194.31H80.0559V209.709H78.7351Z" fill="white"/>
<g clip-path="url(#clip8_55_5858)">
<path d="M58.9702 160.969C59.4607 162.813 58.6498 164.638 57.1522 165.037C55.6481 165.436 54.0328 164.265 53.5424 162.421L48.8404 144.842C48.3434 142.998 49.1608 141.174 50.6584 140.775C52.156 140.376 53.7712 141.546 54.2682 143.391L58.9702 160.963V160.969Z" fill="#005151"/>
<path d="M65.0324 159.151C65.4706 161.113 64.6597 162.97 63.2144 163.297C61.7692 163.624 60.2389 162.29 59.7942 160.335L55.5892 141.651C55.1446 139.689 55.962 137.832 57.4073 137.505C58.8525 137.178 60.3828 138.506 60.8275 140.474L65.0324 159.158V159.151Z" fill="#005151"/>
<path d="M72.1345 162.329C71.6833 164.18 70.1857 165.41 68.7863 165.07C67.3868 164.73 66.6217 162.951 67.0729 161.1L71.3629 143.476C71.8141 141.625 73.3117 140.396 74.7111 140.736C76.1106 141.076 76.8758 142.855 76.4245 144.705L72.1411 162.329H72.1345Z" fill="#005151"/>
<path d="M78.0202 164.344C77.5166 165.92 76.0517 166.861 74.7504 166.443C73.449 166.024 72.8016 164.409 73.3051 162.839L78.1052 147.844C78.6087 146.268 80.0736 145.326 81.375 145.745C82.6764 146.157 83.3238 147.772 82.8202 149.348L78.0202 164.344Z" fill="#005151"/>
<path d="M54.1766 169.229C54.4513 170.295 53.4442 171.733 51.77 172.172L50.7171 170.654C49.043 171.093 48.1144 173.846 48.1144 173.846C48.1144 173.846 45.1977 161.95 44.5241 159.4C44.2168 158.236 45.3743 157.117 47.0484 156.679C48.7226 156.241 49.6708 157.124 50.122 158.36C51.2665 161.486 54.1766 169.229 54.1766 169.229Z" fill="#005151"/>
<path d="M53.431 159.014L53.4114 172.146L78.6608 172.473L78.6673 159.014H53.431Z" fill="#005151"/>
<path d="M78.6677 169.17C78.6677 169.17 78.8442 175.389 78.0922 177.057C77.1374 179.182 74.927 179.287 74.7243 179.561C74.515 179.836 74.7308 188.265 74.7308 188.265L55.1316 188.782L55.1905 180.019C55.1905 180.019 49.5664 180.562 48.5986 176.821C47.6634 173.205 47.1402 170.249 46.2966 166.495L53.5948 170.386L64.3002 168.862L78.6611 169.17H78.6677Z" fill="#005151"/>
</g>
<g clip-path="url(#clip9_55_5858)">
<path d="M55.6758 157.126C56.1663 158.97 55.3553 160.795 53.8578 161.193C52.3537 161.592 50.7384 160.422 50.2479 158.578L45.5459 140.999C45.0489 139.155 45.8664 137.33 47.364 136.932C48.8615 136.533 50.4768 137.703 50.9738 139.547L55.6758 157.119V157.126Z" fill="#FFD5A3"/>
<path d="M61.7382 155.308C62.1764 157.27 61.3655 159.127 59.9202 159.454C58.475 159.781 56.9447 158.447 56.5 156.492L52.2951 137.808C51.8504 135.846 52.6678 133.989 54.1131 133.662C55.5583 133.335 57.0886 134.662 57.5333 136.631L61.7382 155.314V155.308Z" fill="#FFD5A3"/>
<path d="M68.8401 158.486C68.3889 160.337 66.8913 161.566 65.4918 161.226C64.0924 160.886 63.3272 159.107 63.7785 157.257L68.0684 139.633C68.5197 137.782 70.0172 136.552 71.4167 136.892C72.8162 137.233 73.5813 139.011 73.1301 140.862L68.8466 158.486H68.8401Z" fill="#FFD5A3"/>
<path d="M74.726 160.5C74.2224 162.076 72.7576 163.018 71.4562 162.6C70.1548 162.181 69.5074 160.566 70.0109 158.996L74.811 144.001C75.3145 142.425 76.7794 141.483 78.0808 141.902C79.3822 142.314 80.0296 143.929 79.526 145.505L74.726 160.5Z" fill="#FFD5A3"/>
<path d="M50.8824 165.386C51.1571 166.451 50.15 167.89 48.4758 168.328L47.4229 166.811C45.7488 167.249 44.8202 170.003 44.8202 170.003C44.8202 170.003 41.9035 158.107 41.2299 155.557C40.9226 154.392 42.0801 153.274 43.7542 152.836C45.4284 152.398 46.3766 153.281 46.8278 154.517C47.9723 157.643 50.8824 165.386 50.8824 165.386Z" fill="#FFD5A3"/>
<path d="M50.1368 155.17L50.1172 168.302L75.3666 168.629L75.3731 155.17H50.1368Z" fill="#FFD5A3"/>
<path d="M75.3735 165.327C75.3735 165.327 75.55 171.546 74.798 173.213C73.8432 175.339 71.6328 175.443 71.4301 175.718C71.2208 175.993 71.4366 184.422 71.4366 184.422L51.8374 184.939L51.8963 176.176C51.8963 176.176 46.2722 176.719 45.3044 172.978C44.3692 169.361 43.8461 166.406 43.0024 162.652L50.3006 166.543L61.006 165.019L75.3669 165.327H75.3735Z" fill="#FFD5A3"/>
</g>
<path d="M291.444 380.872C291.017 381.298 291.017 381.99 291.444 382.417L298.396 389.369C298.823 389.796 299.515 389.796 299.941 389.369C300.368 388.943 300.368 388.251 299.941 387.824L293.761 381.644L299.941 375.464C300.368 375.037 300.368 374.346 299.941 373.919C299.515 373.492 298.823 373.492 298.396 373.919L291.444 380.872ZM386.263 380.552L292.216 380.552L292.216 382.737L386.263 382.737L386.263 380.552Z" fill="white"/>
<path d="M581.878 246.711C581.789 246.114 581.233 245.702 580.637 245.791L570.911 247.239C570.314 247.328 569.903 247.884 569.992 248.48C570.08 249.077 570.636 249.489 571.233 249.4L579.878 248.113L581.165 256.758C581.253 257.355 581.809 257.766 582.406 257.678C583.003 257.589 583.415 257.033 583.326 256.436L581.878 246.711ZM525.691 323.09L581.675 247.522L579.92 246.221L523.936 321.79L525.691 323.09Z" fill="white"/>
<path d="M400.046 326.839C400.618 326.647 400.926 326.027 400.734 325.455L397.599 316.136C397.407 315.564 396.788 315.256 396.216 315.448C395.644 315.641 395.336 316.26 395.528 316.832L398.314 325.116L390.03 327.902C389.458 328.095 389.151 328.714 389.343 329.286C389.535 329.858 390.155 330.166 390.727 329.973L400.046 326.839ZM147.302 201.666L399.212 326.782L400.184 324.825L148.274 199.71L147.302 201.666Z" fill="white"/>
<path d="M504.631 189.253C504.808 188.676 504.483 188.065 503.907 187.888L494.506 185.005C493.929 184.828 493.318 185.152 493.142 185.729C492.965 186.306 493.289 186.917 493.866 187.094L502.221 189.657L499.659 198.012C499.482 198.589 499.806 199.2 500.383 199.377C500.96 199.554 501.571 199.23 501.748 198.653L504.631 189.253ZM259.14 319.864L504.098 189.898L503.074 187.967L258.116 317.934L259.14 319.864Z" fill="white"/>
<path d="M94.0316 245.78C93.4282 245.789 92.946 246.284 92.9545 246.888L93.0925 256.719C93.101 257.323 93.5969 257.805 94.2002 257.796C94.8035 257.788 95.2857 257.292 95.2773 256.689L95.1546 247.95L103.894 247.827C104.497 247.818 104.979 247.322 104.971 246.719C104.962 246.116 104.466 245.634 103.863 245.642L94.0316 245.78ZM162.236 311.65L94.8085 246.089L93.2853 247.656L160.713 313.217L162.236 311.65Z" fill="white"/>
<path d="M234.808 78.4628C235.013 77.8954 234.72 77.2691 234.152 77.0639L224.906 73.7199C224.338 73.5147 223.712 73.8083 223.507 74.3757C223.302 74.9432 223.595 75.5695 224.163 75.7747L232.382 78.7471L229.409 86.9661C229.204 87.5335 229.498 88.1598 230.065 88.365C230.633 88.5702 231.259 88.2766 231.464 87.7092L234.808 78.4628ZM149.091 119.001L234.244 79.0805L233.317 77.1021L148.163 117.023L149.091 119.001Z" fill="white"/>
<path d="M458.133 302.49C458.706 302.68 459.324 302.369 459.514 301.797L462.604 292.462C462.794 291.89 462.484 291.272 461.911 291.082C461.338 290.892 460.72 291.203 460.53 291.776L457.783 300.073L449.486 297.325C448.913 297.136 448.295 297.446 448.105 298.019C447.916 298.592 448.226 299.21 448.799 299.4L458.133 302.49ZM373.53 134.843L457.501 301.944L459.453 300.963L375.483 133.862L373.53 134.843Z" fill="white"/>
<path d="M172.183 165.513C171.77 165.953 171.791 166.644 172.231 167.057L179.397 173.789C179.837 174.202 180.528 174.181 180.942 173.741C181.355 173.301 181.333 172.61 180.893 172.197L174.523 166.213L180.507 159.843C180.92 159.403 180.899 158.711 180.459 158.298C180.019 157.885 179.328 157.907 178.915 158.347L172.183 165.513ZM495.39 155.093L172.945 165.169L173.013 167.353L495.458 157.277L495.39 155.093Z" fill="white"/>
<path d="M235.783 301.862C236.009 302.422 236.645 302.692 237.205 302.466L246.321 298.782C246.881 298.556 247.151 297.919 246.925 297.36C246.699 296.8 246.062 296.53 245.503 296.756L237.399 300.031L234.125 291.927C233.898 291.368 233.262 291.098 232.702 291.324C232.143 291.55 231.873 292.186 232.099 292.746L235.783 301.862ZM308.844 128.887L235.79 301.026L237.801 301.88L310.855 129.741L308.844 128.887Z" fill="white"/>
<path d="M425.338 82.1102C424.774 82.3259 424.493 82.9576 424.708 83.5211L428.224 92.7034C428.44 93.2669 429.072 93.5488 429.635 93.333C430.199 93.1173 430.481 92.4856 430.265 91.9221L427.14 83.76L435.302 80.6346C435.865 80.4189 436.147 79.7872 435.931 79.2237C435.715 78.6602 435.084 78.3783 434.52 78.5941L425.338 82.1102ZM512.058 120.456L426.174 82.1328L425.283 84.1281L511.168 122.451L512.058 120.456Z" fill="white"/>
<defs>
<linearGradient id="paint0_linear_55_5858" x1="341.097" y1="0" x2="341.097" y2="124.631" gradientUnits="userSpaceOnUse">
<stop stop-color="#17978E"/>
<stop offset="0.494792" stop-color="#89369F" stop-opacity="0.380208"/>
<stop offset="1" stop-color="#FF00E5" stop-opacity="0"/>
</linearGradient>
<linearGradient id="paint1_linear_55_5858" x1="215.141" y1="312.369" x2="215.141" y2="437" gradientUnits="userSpaceOnUse">
<stop stop-color="#17978E"/>
<stop offset="0.494792" stop-color="#89369F" stop-opacity="0.380208"/>
<stop offset="1" stop-color="#FF00E5" stop-opacity="0"/>
</linearGradient>
<linearGradient id="paint2_linear_55_5858" x1="462.014" y1="309.01" x2="462.014" y2="433.641" gradientUnits="userSpaceOnUse">
<stop stop-color="#17978E"/>
<stop offset="0.494792" stop-color="#89369F" stop-opacity="0.380208"/>
<stop offset="1" stop-color="#FF00E5" stop-opacity="0"/>
</linearGradient>
<linearGradient id="paint3_linear_55_5858" x1="596.366" y1="101.604" x2="596.366" y2="226.235" gradientUnits="userSpaceOnUse">
<stop stop-color="#17978E"/>
<stop offset="0.494792" stop-color="#89369F" stop-opacity="0.380208"/>
<stop offset="1" stop-color="#FF00E5" stop-opacity="0"/>
</linearGradient>
<linearGradient id="paint4_linear_55_5858" x1="62.3156" y1="110.001" x2="62.3156" y2="234.632" gradientUnits="userSpaceOnUse">
<stop stop-color="#17978E"/>
<stop offset="0.494792" stop-color="#89369F" stop-opacity="0.380208"/>
<stop offset="1" stop-color="#FF00E5" stop-opacity="0"/>
</linearGradient>
<clipPath id="clip0_55_5858">
<rect width="60.3939" height="49.4307" fill="white" transform="translate(314.469 31.2949)"/>
</clipPath>
<clipPath id="clip1_55_5858">
<rect width="60.3939" height="49.4307" fill="white" transform="translate(310.076 26.9028)"/>
</clipPath>
<clipPath id="clip2_55_5858">
<rect width="36.2364" height="63.3064" fill="white" transform="translate(200.592 328.84)"/>
</clipPath>
<clipPath id="clip3_55_5858">
<rect width="36.2364" height="63.3064" fill="white" transform="translate(196.199 325.546)"/>
</clipPath>
<clipPath id="clip4_55_5858">
<rect width="64.2372" height="35.3017" fill="white" transform="translate(430.993 348.541)"/>
</clipPath>
<clipPath id="clip5_55_5858">
<rect width="64.2372" height="35.3017" fill="white" transform="translate(429.895 344.148)"/>
</clipPath>
<clipPath id="clip6_55_5858">
<rect width="43.0005" height="64.1884" fill="white" transform="translate(574.679 120.82)"/>
</clipPath>
<clipPath id="clip7_55_5858">
<rect width="43.0005" height="64.1884" fill="white" transform="translate(571.385 118.074)"/>
</clipPath>
<clipPath id="clip8_55_5858">
<rect width="38.5183" height="51.3293" fill="white" transform="translate(44.4717 137.453)"/>
</clipPath>
<clipPath id="clip9_55_5858">
<rect width="38.5183" height="51.3293" fill="white" transform="translate(41.1777 133.609)"/>
</clipPath>
</defs>
</svg>
