<svg width="37" height="64" viewBox="0 0 37 64" fill="none" xmlns="http://www.w3.org/2000/svg">
<g clip-path="url(#clip0_169_4230)">
<path d="M18.6212 13.733C17.1811 14.0161 16.2507 15.4158 16.5339 16.8477C16.817 18.2878 18.2167 19.2182 19.6486 18.935L29.535 16.9691C30.975 16.6859 31.9054 15.2863 31.6223 13.8543C31.3391 12.4143 29.9395 11.4839 28.5075 11.767L18.6212 13.733Z" fill="#E8BA90"/>
<path d="M9.94835 22.1311C8.95325 23.1991 6.50998 27.6002 7.5779 28.5953L8.35457 30.1243C9.43058 31.1194 10.0454 29.9544 11.0405 28.8865L20.6922 18.3611C21.6873 17.2851 21.6307 15.6104 20.5547 14.6153C19.4787 13.6202 17.804 13.6768 16.8089 14.7447L9.94835 22.123V22.1311Z" fill="#E8BA90"/>
<path d="M19.6162 9.25935C18.1842 9.54251 17.2458 10.9421 17.5289 12.3741C17.8121 13.8142 19.2117 14.7446 20.6437 14.4614L30.53 12.4955C31.9701 12.2123 32.9005 10.8127 32.6173 9.3807C32.3341 7.94063 30.9345 7.01025 29.4945 7.29341L19.6162 9.25935Z" fill="#E8BA90"/>
<path d="M10.9433 17.6575C9.9482 18.7254 7.50493 23.1265 8.58094 24.1216L9.35761 25.6507C10.4336 26.6458 11.0485 25.4808 12.0436 24.4129L21.6953 13.8874C22.6904 12.8114 22.6338 11.1367 21.5577 10.1416C20.4898 9.14653 18.8071 9.20316 17.8119 10.2711L10.9514 17.6494L10.9433 17.6575Z" fill="#E8BA90"/>
<path d="M11.9548 10.0119C10.5147 11.1041 10.4015 13.3775 11.704 15.0926C13.0065 16.7996 15.1019 16.9534 16.542 15.8612L27.8765 6.58972C29.3974 5.16583 30.7081 3.05426 29.4864 1.55756C27.9088 -0.384105 25.4413 0.837527 23.1922 2.33423L11.9548 10.02V10.0119Z" fill="#FFD5A3"/>
<path d="M16.542 15.8528C15.466 17.1391 9.81895 29.8166 11.8092 31.9524C14.4061 34.7517 16.5015 34.42 19.7538 32.3408C21.655 31.1272 23.5239 29.4849 27.0998 27.5109C34.9959 23.1583 35.5703 25.9413 36.3065 27.5109C37.6333 30.3829 28.2082 34.7274 25.5303 38.4408C21.922 43.4649 17.44 50.1232 17.44 50.1232L17.6503 63.6259L0.822564 63.8443C0.822564 63.8443 -0.17254 31.2567 0.353328 29.7033C0.822564 28.3037 8.07954 13.4742 11.9062 10.0439L16.9546 15.5777C16.7604 15.6748 16.6229 15.7638 16.542 15.8528Z" fill="#FFD5A3"/>
</g>
<defs>
<clipPath id="clip0_169_4230">
<rect width="36.2364" height="63.3064" fill="white" transform="translate(0.199463 0.545898)"/>
</clipPath>
</defs>
</svg>
