<svg width="44" height="65" viewBox="0 0 44 65" fill="none" xmlns="http://www.w3.org/2000/svg">
<g clip-path="url(#clip0_169_4257)">
<path d="M18.7125 30.2289C18.7125 32.6287 17.1345 34.5848 15.1866 34.5848C13.2306 34.5848 11.6526 32.637 11.6526 30.2371L11.6279 7.37254C11.6279 4.97266 13.1977 3.02482 15.1538 3.0166C17.1016 3.0166 18.6878 4.95623 18.6878 7.36432L18.7125 30.2289Z" fill="#FFD5A3"/>
<path d="M27.1204 28.7165C27.1204 31.2479 25.6164 33.3026 23.7507 33.3026C21.8851 33.3026 20.3728 31.2561 20.3728 28.7248L20.3482 4.66028C20.34 2.12891 21.844 0.0742188 23.7096 0.0742188C25.5753 0.0742188 27.0876 2.12069 27.0876 4.65206L27.1122 28.7165H27.1204Z" fill="#FFD5A3"/>
<path d="M35.3472 30.2537C35.3472 32.6536 33.8843 34.5932 32.0762 34.5932C30.268 34.5932 28.7969 32.6536 28.7969 30.2619L28.7722 7.47133C28.7722 5.07968 30.2269 3.13184 32.0351 3.13184C33.8432 3.13184 35.3143 5.07146 35.3143 7.46311L35.339 30.2537H35.3472Z" fill="#FFD5A3"/>
<path d="M43.3522 32.4892C43.3522 34.5685 41.9632 36.2534 40.2455 36.2616C38.5278 36.2616 37.1306 34.5768 37.1306 32.5056L37.106 12.7149C37.106 10.6356 38.4949 8.94249 40.2126 8.95071C41.9304 8.95071 43.3275 10.6273 43.3275 12.7067L43.3522 32.4974V32.4892Z" fill="#FFD5A3"/>
<path d="M12.5813 39.6888C12.9265 41.0285 11.6608 42.8366 9.55679 43.3872L8.23357 41.4805C6.12958 42.0312 4.96251 45.4912 4.96251 45.4912C4.96251 45.4912 1.29695 30.5413 0.450422 27.336C0.0641414 25.8731 1.51886 24.4677 3.62286 23.917C5.72686 23.3664 6.91858 24.4759 7.48567 26.0293C8.92395 29.9578 12.5813 39.6888 12.5813 39.6888Z" fill="#FFD5A3"/>
<path d="M11.6443 26.8594L11.6196 43.3626L43.3522 43.7736L43.3604 26.8594H11.6443Z" fill="#FFD5A3"/>
<path d="M43.3605 39.6149C43.3605 39.6149 43.5824 47.4309 42.6373 49.5267C41.4373 52.1978 38.6594 52.3293 38.4046 52.6745C38.1416 53.0197 38.4128 63.6136 38.4128 63.6136L13.7813 64.2629L13.8552 53.2498C13.8552 53.2498 6.78711 53.9319 5.57073 49.2308C4.39545 44.6859 3.73795 40.971 2.67773 36.2534L11.8499 41.1436L25.3039 39.2286L43.3523 39.6149H43.3605Z" fill="#FFD5A3"/>
</g>
<defs>
<clipPath id="clip0_169_4257">
<rect width="43.0005" height="64.1884" fill="white" transform="translate(0.384521 0.0742188)"/>
</clipPath>
</defs>
</svg>
