<svg width="127" height="104" viewBox="0 0 127 104" fill="none" xmlns="http://www.w3.org/2000/svg">
<g clip-path="url(#clip0_169_1480)">
<path d="M77.6677 82.6574C73.4515 82.6574 70.0361 77.711 70.0361 71.5869C70.0361 65.4628 73.4515 60.4929 77.6441 60.4929L117.71 60.4458C121.926 60.4458 125.341 65.3922 125.341 71.5163C125.341 77.6403 121.949 82.6103 117.733 82.6103L77.6677 82.6574Z" fill="#FFD5A3"/>
<path d="M78.821 58.7497C74.6048 58.7497 71.1895 53.8033 71.1895 47.6792C71.1895 41.5551 74.5813 36.5852 78.7974 36.5852L118.863 36.5381C123.056 36.5381 126.495 41.4845 126.495 47.6085C126.495 53.7326 123.103 58.7026 118.887 58.7026L78.821 58.7497Z" fill="#FFD5A3"/>
<path d="M77.6677 34.8194C73.4515 34.8194 70.0361 30.2499 70.0361 24.5969C70.0361 18.9439 73.4515 14.3508 77.6441 14.3508L117.71 14.3037C121.926 14.3037 125.341 18.8732 125.341 24.5262C125.341 30.1792 121.949 34.7723 117.733 34.7723L77.6677 34.8194Z" fill="#FFD5A3"/>
<path d="M85.7454 103.243C82.9896 103.243 80.752 98.9326 80.752 93.6093C80.752 88.2861 82.966 83.9757 85.7219 83.9757H111.891C114.646 83.9521 116.884 88.2625 116.884 93.5622C116.884 98.8855 114.67 103.196 111.914 103.196H85.7454V103.243Z" fill="#FFD5A3"/>
<path d="M107.723 14.3744L60.4023 14.3037L59.2246 103.126L107.723 103.15V14.3744Z" fill="#FFD5A3"/>
<path d="M71.1899 103.032C71.1899 103.032 47.4944 103.809 41.4881 101.101C33.833 97.6617 34.4454 90.0537 34.4454 90.0537L2.52956 89.8888L0.503906 23.5838L32.0429 23.3012C32.0429 23.3012 32.7024 7.87322 46.1754 4.38721C52.5821 2.71486 75.4061 0.147461 75.4061 0.147461C75.4061 0.147461 94.7441 14.751 95.2387 16.4705L66.7617 15.0101L72.2499 53.5683L71.1899 103.056V103.032Z" fill="#FFD5A3"/>
</g>
<defs>
<clipPath id="clip0_169_1480">
<rect width="125.991" height="103.12" fill="white" transform="translate(0.503906 0.123535)"/>
</clipPath>
</defs>
</svg>
