<svg width="136" height="74" viewBox="0 0 136 74" fill="none" xmlns="http://www.w3.org/2000/svg">
<g clip-path="url(#clip0_169_1506)">
<path d="M77.8347 22.8561C73.0604 23.3422 68.8243 20.4255 68.425 16.311C68.0084 12.2138 71.5326 8.49861 76.3243 8.0125L121.827 3.37714C126.601 2.89104 130.82 5.80767 131.237 9.90484C131.653 14.002 128.129 17.7172 123.338 18.2034L77.8347 22.8387V22.8561Z" fill="#FFD5A3"/>
<path d="M74.2577 40.0951C68.9279 39.9041 64.7092 36.5535 64.8481 32.6299C64.9869 28.689 69.4313 25.6682 74.7785 25.8592L125.577 27.6821C130.924 27.873 135.125 31.2063 134.986 35.1472C134.847 39.0882 130.403 42.109 125.056 41.918L74.2577 40.0951Z" fill="#FFD5A3"/>
<path d="M65.6813 58.0809C63.4764 58.0809 61.6709 54.4699 61.6709 50.0081C61.6709 45.5464 63.4591 41.9353 65.6639 41.9353H86.6706C88.8754 41.9006 90.681 45.5117 90.681 49.9734C90.681 54.4352 88.8928 58.0462 86.688 58.0462L65.6813 58.0809Z" fill="#FFD5A3"/>
<path d="M63.825 73.9488C61.8112 73.9488 60.1445 70.7718 60.1445 66.8482C60.1445 62.9247 61.7765 59.7476 63.8077 59.7476H83.0956C85.1269 59.7303 86.7762 62.9073 86.7762 66.8135C86.7762 70.7371 85.1442 73.9315 83.113 73.9315H63.825V73.9488Z" fill="#FFD5A3"/>
<path d="M80.0215 8.44613L45.1434 8.39404L44.2754 73.862L80.0215 73.8794V8.44613Z" fill="#FFD5A3"/>
<path d="M53.0952 73.7931C53.0952 73.7931 35.6301 74.366 31.2031 72.3695C25.5608 69.8348 26.2205 65.512 25.4914 64.9738C24.7622 64.4182 2.36663 65.0085 2.36663 65.0085L0.995117 12.9779L24.2414 13.1341C24.2414 13.1341 27.5052 5.00922 37.4183 2.45717C42.1578 1.24191 58.3729 0.321777 58.3729 0.321777C58.3729 0.321777 78.8588 9.14112 79.2234 10.4258L49.8313 8.89806L53.8764 37.3179L53.0952 73.8105V73.7931Z" fill="#FFD5A3"/>
</g>
<defs>
<clipPath id="clip0_169_1506">
<rect width="134.009" height="73.6449" fill="white" transform="translate(0.995117 0.304199)"/>
</clipPath>
</defs>
</svg>
