<svg width="39" height="52" viewBox="0 0 39 52" fill="none" xmlns="http://www.w3.org/2000/svg">
<g clip-path="url(#clip0_169_290)">
<path d="M14.6758 24.1258C15.1663 25.97 14.3553 27.7945 12.8578 28.1934C11.3537 28.5924 9.73839 27.4218 9.24792 25.5776L4.54594 7.99914C4.04893 6.15497 4.86638 4.33042 6.36395 3.93151C7.86152 3.53259 9.4768 4.70318 9.97381 6.54735L14.6758 24.1193V24.1258Z" fill="#FFD5A3"/>
<path d="M20.7382 22.3079C21.1764 24.2698 20.3655 26.127 18.9202 26.454C17.475 26.781 15.9447 25.4469 15.5 23.4916L11.2951 4.8079C10.8504 2.84602 11.6678 0.988776 13.1131 0.661795C14.5583 0.334815 16.0886 1.66235 16.5333 3.63078L20.7382 22.3144V22.3079Z" fill="#FFD5A3"/>
<path d="M27.8401 25.4862C27.3889 27.3369 25.8913 28.5664 24.4918 28.2263C23.0924 27.8863 22.3272 26.1075 22.7785 24.2568L27.0684 6.63256C27.5197 4.78185 29.0172 3.55241 30.4167 3.89247C31.8162 4.23253 32.5813 6.0113 32.1301 7.86201L27.8466 25.4862H27.8401Z" fill="#FFD5A3"/>
<path d="M33.726 27.5003C33.2224 29.0763 31.7576 30.018 30.4562 29.5995C29.1548 29.181 28.5074 27.5657 29.0109 25.9962L33.811 11.0009C34.3145 9.42482 35.7794 8.48312 37.0808 8.90165C38.3822 9.31365 39.0296 10.9289 38.526 12.505L33.726 27.5003Z" fill="#FFD5A3"/>
<path d="M9.8824 32.3855C10.1571 33.4515 9.14996 34.8902 7.47582 35.3284L6.42295 33.8112C4.74881 34.2493 3.82019 37.0025 3.82019 37.0025C3.82019 37.0025 0.903522 25.107 0.229943 22.5565C-0.0774184 21.3925 1.08009 20.2742 2.75423 19.836C4.42837 19.3979 5.37661 20.2807 5.82784 21.5167C6.97227 24.6426 9.8824 32.3855 9.8824 32.3855Z" fill="#FFD5A3"/>
<path d="M9.13681 22.1704L9.11719 35.3019L34.3666 35.6289L34.3731 22.1704H9.13681Z" fill="#FFD5A3"/>
<path d="M34.3735 32.3266C34.3735 32.3266 34.55 38.5457 33.798 40.2133C32.8432 42.3387 30.6328 42.4433 30.4301 42.718C30.2208 42.9926 30.4366 51.4222 30.4366 51.4222L10.8374 51.9388L10.8963 43.1758C10.8963 43.1758 5.27224 43.7185 4.30438 39.9779C3.36922 36.3615 2.84605 33.4056 2.00244 29.6519L9.30064 33.5429L20.006 32.0192L34.3669 32.3266H34.3735Z" fill="#FFD5A3"/>
</g>
<defs>
<clipPath id="clip0_169_290">
<rect width="38.5183" height="51.3293" fill="white" transform="translate(0.177734 0.609375)"/>
</clipPath>
</defs>
</svg>
