<svg width="122" height="42" viewBox="0 0 122 42" fill="none" xmlns="http://www.w3.org/2000/svg">
<g clip-path="url(#clip0_55_1952)">
<path d="M77.0796 39.6056C75.9766 39.6056 74.8749 39.1793 74.0431 38.3281L56.7566 20.65L74.0431 2.97179C74.8777 2.11785 75.9849 1.69434 77.0907 1.69434C79.5114 1.69434 81.3245 3.66381 81.3245 5.91423C81.3245 6.99378 80.9286 8.07609 80.1148 8.90927L68.6343 20.65L80.1148 32.3907C80.9314 33.2252 81.3245 34.3103 81.3245 35.3912C81.3245 37.6514 79.5086 39.6056 77.0796 39.6056Z" fill="white"/>
<path d="M51.9015 39.6056C49.5569 39.6056 47.6553 37.7053 47.6553 35.3594V5.94053C47.6553 3.5946 49.5569 1.69434 51.9015 1.69434C54.2474 1.69434 56.149 3.5946 56.149 5.94053V35.3594C56.149 37.7053 54.2474 39.6056 51.9015 39.6056Z" fill="white"/>
<path d="M105.105 39.589C94.135 39.589 85.6993 32.1872 85.6993 20.6555C85.6993 10.2933 92.9406 1.69434 105.105 1.69434C108.573 1.69434 112.263 2.5898 115.233 4.36412C116.566 5.15994 117.304 6.57026 117.304 8.01796C117.304 10.2296 115.543 12.2365 113.084 12.2572C112.334 12.2628 111.583 12.0482 110.88 11.6566C109.273 10.7597 107.319 10.0719 105.181 10.0719C98.5044 10.0719 94.3993 14.6267 94.3993 20.6555C94.3993 27.0871 98.9306 31.2115 105.181 31.2115C107.416 31.2115 110.098 30.3921 111.812 29.2157V25.3335H108.98C106.634 25.3335 104.734 23.4319 104.734 21.0873C104.734 18.7414 106.634 16.8397 108.98 16.8397H116.058C118.404 16.8397 120.306 18.7414 120.306 21.0873V30.8433C120.306 32.1042 119.788 33.3318 118.887 34.2107C115.327 37.679 110.413 39.589 105.105 39.589Z" fill="white"/>
<path d="M10.6685 6.19405C10.6685 8.67284 8.65888 10.6811 6.18147 10.6811C3.70407 10.6811 1.69446 8.67284 1.69446 6.19405C1.69446 3.71664 3.70407 1.70703 6.18147 1.70703C8.65888 1.70703 10.6685 3.71664 10.6685 6.19405Z" fill="#30CEBB"/>
<path d="M38.1331 6.19405C38.1331 8.67145 36.1235 10.6797 33.6461 10.6797C31.1687 10.6797 29.1591 8.67145 29.1591 6.19405C29.1591 3.71525 31.1687 1.70703 33.6461 1.70703C36.1235 1.70703 38.1331 3.71525 38.1331 6.19405Z" fill="#30CEBB"/>
<path d="M19.9138 39.6061C10 39.6061 1.9353 31.5414 1.9353 21.6276V18.7599C1.9353 16.4139 3.83557 14.5137 6.1815 14.5137C8.52604 14.5137 10.4277 16.4139 10.4277 18.7599V21.7328C10.4277 26.963 13.5307 31.2175 19.9138 31.2175C25.8845 31.2175 29.3999 26.963 29.3999 21.7328V18.7599C29.3999 16.4139 31.3002 14.5137 33.6461 14.5137C35.9907 14.5137 37.8923 16.4139 37.8923 18.7599V21.6276C37.8923 31.5414 29.8276 39.6061 19.9138 39.6061Z" fill="white"/>
</g>
<defs>
<clipPath id="clip0_55_1952">
<rect width="118.611" height="37.9113" fill="white" transform="translate(1.69446 1.69434)"/>
</clipPath>
</defs>
</svg>
